<svg width="300" height="262" viewBox="0 0 300 262" fill="none" xmlns="http://www.w3.org/2000/svg">
<path d="M20.527 42.414C13.6847 42.414 6.84234 42.414 0 42.414V41.7557C15.6776 41.7557 31.6209 41.7557 47.0328 41.7557C58.8574 41.7557 70.682 41.7557 82.5067 41.7557H82.5731C109.278 41.7557 126.019 33.9879 147.609 19.7029C169.531 5.22054 189.725 -6.03625 215.235 3.57481C226.727 7.91953 237.356 14.2391 247.653 20.2954C263.663 29.7748 280.27 39.6492 300 41.6899L299.934 42.3482C280.071 40.2416 263.463 30.3673 247.321 20.822C237.024 14.7658 226.461 8.44617 215.035 4.10144C189.792 -5.37795 169.73 5.74717 148.007 20.1637C126.284 34.5145 109.411 42.3482 82.5731 42.3482H82.5067C70.682 42.3482 58.8574 42.3482 47.0328 42.3482C38.3304 42.414 29.4287 42.414 20.527 42.414Z" fill="#A8A6FF"/>
<path d="M8.5031 51.301C5.64659 51.301 2.85651 51.301 0 51.2352V50.5769C15.8105 50.8402 31.8202 50.2477 47.3649 49.7211C58.791 49.3261 70.5492 48.8653 82.1745 48.7995C108.082 48.602 125.221 41.5583 147.609 28.5899C168.136 16.7407 189.393 4.43065 215.235 13.91C226.727 18.1231 237.489 24.0477 247.919 29.8407C264.061 38.7935 280.669 48.0095 300 50.511L299.934 51.1693C280.469 48.602 263.795 39.3859 247.586 30.4332C237.223 24.706 226.461 18.7156 215.035 14.5683C189.46 5.2206 168.401 17.399 148.007 29.2482C126.019 41.9533 108.149 49.392 82.2409 49.5894C70.6156 49.6553 58.8574 50.1161 47.4314 50.511C34.6767 50.8402 21.5235 51.301 8.5031 51.301Z" fill="#A8A6FF"/>
<path d="M0.996457 59.9904C0.664305 59.9904 0.332152 59.9904 0 59.9904V59.3321C15.744 59.3979 31.6873 57.7522 47.0328 56.1723C58.326 54.9874 70.0177 53.8024 81.5766 53.2758C104.96 52.2225 123.494 47.7462 147.608 37.2793L148.273 37.016C170.394 27.405 191.32 18.3205 215.434 26.2859C226.86 30.104 237.688 35.3703 248.184 40.5708C264.393 48.5361 281.134 56.7648 300 59.2004L299.934 59.8587C281.001 57.423 264.194 49.1286 247.919 41.1633C237.423 36.0286 226.594 30.6964 215.235 26.9442C191.386 19.0447 170.593 28.0633 148.539 37.6085L147.874 37.8718C123.627 48.4045 105.027 52.8808 81.5766 53.9341C70.0177 54.4607 58.326 55.6457 47.0992 56.8306C32.0859 58.4105 16.5412 59.9904 0.996457 59.9904Z" fill="#A8A6FF"/>
<path d="M0 68.7456V68.0873C15.8769 67.6265 31.488 64.6642 46.6342 61.7677C57.7945 59.6612 69.287 57.423 80.8459 56.2381C103.499 53.9341 124.889 51.7617 147.675 45.9687C149.004 45.6396 150.266 45.3104 151.594 44.9813C172.454 39.6491 194.11 34.1853 215.766 40.3074C227.059 43.4672 237.954 47.9436 248.516 52.2883C264.792 59.0029 281.665 65.9808 300 67.9557L299.934 68.614C281.532 66.5733 264.593 59.5954 248.251 52.8808C237.755 48.5361 226.86 44.0597 215.567 40.8999C194.043 34.8436 172.52 40.3074 151.727 45.5738C150.399 45.9029 149.136 46.2321 147.808 46.5612C124.956 52.2883 103.565 54.5265 80.8459 56.8305C69.287 58.0155 57.7945 60.1878 46.7006 62.3602C31.5545 65.2567 15.8769 68.2848 0 68.7456Z" fill="#A8A6FF"/>
<path d="M299.934 77.4351C282.001 75.9869 265.065 70.4572 248.594 65.1251C238.034 61.702 227.142 58.1472 216.05 55.7115C198.185 51.7618 179.19 53.1442 160.793 54.4608C156.542 54.7899 152.092 55.1191 147.775 55.3165C140.27 55.7115 132.499 55.8432 124.994 55.9748C110.117 56.2382 94.7089 56.5015 80.2302 58.9371C68.6739 60.912 57.3832 64.2035 46.4246 67.3633C31.5475 71.708 16.139 76.1844 0.066416 77.3035L0 76.6452C16.0062 75.5261 31.3482 71.0497 46.2254 66.705C57.184 63.4794 68.5411 60.1879 80.0974 58.213C94.6425 55.7773 110.051 55.514 124.994 55.2507C132.499 55.1191 140.27 54.9874 147.775 54.5924C152.092 54.3291 156.476 54.0658 160.793 53.7366C179.256 52.4201 198.317 51.0376 216.25 54.9874C227.341 57.4231 238.3 60.9779 248.86 64.401C265.265 69.7331 282.201 75.1969 300 76.6452L299.934 77.4351Z" fill="#A8A6FF"/>
<path d="M299.934 86.1903C282.466 85.3346 265.397 81.319 248.926 77.5009C238.366 74.9994 227.474 72.4979 216.582 70.7205C204.295 68.8115 191.609 67.9557 179.323 67.0999C168.895 66.3758 158.136 65.7175 147.709 64.3351C144.189 63.8743 140.536 63.3476 137.016 62.821C117.822 60.0562 97.8968 57.1597 79.3668 61.5044C67.8105 64.2034 56.7855 68.5481 46.0261 72.7612C31.4811 78.4883 16.4047 84.413 0.066416 86.1245L0 85.4662C16.2054 83.7547 31.2154 77.8301 45.7605 72.1687C56.5198 67.9557 67.6112 63.611 79.1676 60.912C97.8304 56.5672 117.755 59.4637 137.082 62.2285C140.602 62.7552 144.255 63.2818 147.775 63.7426C158.202 65.125 168.962 65.8491 179.389 66.5074C191.676 67.2974 204.428 68.1532 216.715 70.128C227.673 71.8396 238.565 74.4069 249.126 76.9084C265.597 80.7924 282.599 84.7421 300 85.5979L299.934 86.1903Z" fill="#A8A6FF"/>
<path d="M300 94.9457C282.865 94.4191 265.729 91.6543 249.258 89.0211C238.698 87.3095 227.872 85.598 217.047 84.4131L212.398 83.9523C190.414 81.5824 169.626 79.41 147.642 73.2221C145.65 72.6955 143.724 72.103 141.665 71.5106C120.943 65.5201 99.4908 59.398 78.6363 65.2568C67.0799 68.4824 56.2541 73.7487 45.7605 78.7518C31.4811 85.598 16.7368 92.7075 0.0664148 94.8799L0 94.2216C16.5375 92.1151 31.2818 85.0055 45.4948 78.1593C55.9885 73.0904 66.8807 67.8899 78.5034 64.5985C99.5572 58.6739 121.076 64.8618 141.93 70.8523C143.923 71.4447 145.915 71.9713 147.841 72.5638C169.759 78.7517 190.48 80.9241 212.464 83.294L217.047 83.7548C227.872 84.9397 238.765 86.6512 249.325 88.3628C265.796 90.996 282.865 93.7608 300 94.2874V94.9457Z" fill="#A8A6FF"/>
<path d="M300 103.701C283.064 103.569 265.995 102.187 249.391 100.805C238.897 99.9488 228.005 99.0271 217.312 98.5005C191.277 97.1181 171.087 92.4442 147.709 82.3065C146.314 81.7141 144.919 81.0558 143.458 80.4633C122.471 71.2472 100.753 61.7678 78.2378 69.1407C66.615 72.9588 55.9885 79.0151 45.694 84.8739C31.6803 92.8392 17.1353 101.134 0.066416 103.635L0 102.977C16.936 100.475 31.4147 92.2467 45.362 84.2814C55.6564 78.4226 66.3493 72.3663 78.0385 68.4824C100.753 61.0437 122.603 70.589 143.724 79.8709C145.118 80.4633 146.58 81.1216 147.974 81.7141C171.286 91.8518 191.41 96.5256 217.379 97.8422C228.072 98.3689 238.964 99.2905 249.458 100.146C265.995 101.529 283.064 102.911 300 103.043V103.701Z" fill="#A8A6FF"/>
<path d="M293.227 112.522C278.752 112.522 264.143 112.325 250 112.127C239.376 111.995 228.353 111.864 217.596 111.798C189.11 111.666 170.452 104.293 147.875 91.6542C146.746 90.9959 145.551 90.3377 144.422 89.6794C123.506 77.8959 101.859 65.7176 78.0877 74.2753C66.4011 78.4884 55.9097 85.203 45.8167 91.7201C32.0053 100.607 17.6627 109.823 0.132801 112.456L0 111.798C17.3971 109.165 31.6069 100.015 45.4183 91.1276C55.5777 84.6105 66.0027 77.896 77.822 73.6171C101.859 64.9276 124.635 77.7643 144.688 89.0869C145.883 89.7452 147.012 90.4035 148.141 91.0618C170.651 103.635 189.177 111.008 217.53 111.14C228.353 111.205 239.309 111.337 250 111.469C266.401 111.666 283.333 111.93 300 111.864V112.522C297.809 112.456 295.551 112.522 293.227 112.522Z" fill="#A8A6FF"/>
<path d="M300 121.212C283.267 121.212 266.202 120.487 249.734 119.895C239.177 119.5 228.287 119.039 217.53 118.776C192.165 118.183 173.307 113.115 147.875 100.08C146.746 99.4879 145.618 98.8955 144.489 98.3688C123.373 87.507 101.594 76.2502 78.1541 84.4789C66.5339 88.5603 56.1089 94.9457 45.9495 101.199C32.0053 109.757 17.5299 118.644 0.0664013 121.212L0 120.553C17.3307 118.052 31.6733 109.165 45.6175 100.673C55.7769 94.4191 66.2683 87.9678 77.9548 83.8864C101.66 75.5919 123.639 86.9146 144.821 97.7764C145.95 98.3688 147.078 98.9613 148.207 99.4879C173.572 112.456 192.364 117.525 217.596 118.118C228.353 118.381 239.243 118.776 249.801 119.237C266.268 119.895 283.267 120.553 300 120.553V121.212Z" fill="#A8A6FF"/>
<path d="M300 129.967C283.197 129.704 266.327 127.926 250.055 126.149C239.429 125.03 228.404 123.845 217.578 123.121C190.016 121.277 169.892 117.196 148.107 109.165C146.845 108.704 145.583 108.243 144.321 107.782C123.002 99.8829 101.018 91.7201 78.7027 98.4347C67.2792 101.924 56.6526 107.387 46.3582 112.72C32.0124 120.158 17.2017 127.86 0.066416 129.901L0 129.243C17.0024 127.202 31.7467 119.566 46.0261 112.127C56.3206 106.795 66.9471 101.265 78.437 97.7764C100.952 90.996 123.068 99.1588 144.454 107.124C145.716 107.585 146.978 108.046 148.24 108.507C169.958 116.538 190.016 120.553 217.512 122.396C228.404 123.121 239.362 124.306 249.989 125.49C266.327 127.268 283.13 129.045 299.867 129.309L300 129.967Z" fill="#A8A6FF"/>
<path d="M300 138.722C283.13 138.064 266.394 134.97 250.255 131.942C239.562 129.967 228.47 127.86 217.445 126.544C211.003 125.754 204.494 125.095 198.251 124.437C181.182 122.66 165.11 121.014 148.24 117.196C146.115 116.735 143.923 116.208 141.731 115.682C121.076 110.942 99.7565 106.005 79.234 111.469C67.8769 114.431 57.184 119.171 46.7567 123.779C32.0788 130.23 16.936 136.879 0.066416 138.656L0 137.998C16.8032 136.22 31.8796 129.572 46.491 123.186C56.9183 118.578 67.6777 113.904 79.0348 110.876C99.6901 105.412 121.076 110.35 141.864 115.089C144.056 115.616 146.248 116.077 148.373 116.603C165.176 120.356 181.249 122.067 198.317 123.779C204.561 124.437 211.069 125.095 217.512 125.885C228.603 127.202 239.628 129.308 250.387 131.283C266.526 134.311 283.197 137.405 300 138.064V138.722Z" fill="#A8A6FF"/>
<path d="M299.867 147.477C282.665 146.622 265.995 142.409 249.923 138.393C239.097 135.694 227.872 132.863 216.582 131.086C202.634 128.848 188.023 128.321 173.876 127.794C165.375 127.465 156.542 127.136 148.041 126.478C143.724 126.149 139.274 125.688 134.957 125.293C116.56 123.45 97.5648 121.606 79.8317 125.425C68.6075 127.86 57.7817 131.678 47.288 135.365C32.2781 140.697 16.7368 146.161 0.066416 147.477L0 146.819C16.6039 145.502 32.0788 139.973 47.0888 134.706C57.5825 131.02 68.4746 127.136 79.7653 124.7C97.5648 120.882 116.626 122.726 135.09 124.569C139.407 124.964 143.857 125.425 148.174 125.754C156.675 126.412 165.508 126.741 174.009 127.07C188.156 127.597 202.834 128.124 216.781 130.362C228.138 132.139 239.362 134.97 250.188 137.669C266.261 141.684 282.931 145.897 300 146.753L299.867 147.477Z" fill="#A8A6FF"/>
<path d="M0.066416 156.233L0 155.574C16.4711 154.653 32.3445 150.44 47.6865 146.358C58.313 143.528 69.2716 140.631 80.4295 138.788C93.6462 136.615 107.461 136.155 120.81 135.628C129.71 135.299 138.875 134.97 147.775 134.18C151.029 133.851 154.417 133.522 157.671 133.192C176.998 131.218 196.989 129.177 215.851 133.192C227.54 135.694 238.897 139.512 249.923 143.198C265.929 148.531 282.533 154.126 300 155.574L299.934 156.233C282.333 154.784 265.729 149.189 249.657 143.857C238.632 140.17 227.275 136.352 215.652 133.917C196.856 129.901 176.998 131.942 157.737 133.917C154.483 134.246 151.096 134.575 147.841 134.904C138.942 135.694 129.776 136.089 120.877 136.418C107.527 136.879 93.7126 137.405 80.5623 139.578C69.4709 141.421 58.5123 144.318 47.8858 147.148C32.5437 151.098 16.6039 155.311 0.066416 156.233Z" fill="#A8A6FF"/>
<path d="M0 165.054V164.395C16.4083 163.869 32.6174 160.841 48.3614 157.944C59.0567 155.969 70.0841 153.929 81.1116 152.678C86.6918 152.02 92.2719 151.493 97.6528 150.966C114.593 149.321 130.669 147.675 147.542 143.528L148.937 143.198C170.527 137.866 192.848 132.337 215.102 137.8C227.059 140.763 238.552 145.305 249.646 149.781C265.589 156.167 282.064 162.684 300 164.395L299.934 165.054C281.931 163.342 265.39 156.759 249.38 150.374C238.286 145.963 226.794 141.355 214.903 138.459C192.781 132.995 170.593 138.525 149.07 143.857L147.675 144.186C130.735 148.399 114.725 149.979 97.7192 151.625C92.3384 152.151 86.7582 152.678 81.178 153.336C70.1506 154.587 59.1231 156.628 48.4278 158.603C32.6838 161.433 16.4083 164.461 0 165.054Z" fill="#A8A6FF"/>
<path d="M0 173.809V173.151C16.4083 172.822 32.9495 170.847 48.9593 169.003C59.6546 167.753 70.7485 166.502 81.7095 165.646C105.624 163.869 124.956 160.972 147.608 151.69C168.8 143.001 190.722 134.048 214.969 141.158C227.192 144.712 238.685 150.242 249.779 155.574C265.523 163.079 281.798 170.912 300 173.085L299.934 173.743C281.599 171.505 265.323 163.671 249.513 156.167C238.419 150.835 226.926 145.371 214.77 141.816C190.722 134.772 168.933 143.725 147.808 152.349C125.089 161.631 105.691 164.593 81.7095 166.37C70.7485 167.16 59.6546 168.477 48.9593 169.728C33.0159 171.505 16.4748 173.414 0 173.809Z" fill="#A8A6FF"/>
<path d="M0 182.564V181.906C16.5375 181.906 33.3407 181.248 49.6126 180.655C60.3055 180.26 71.3969 179.799 82.2891 179.602C107.66 179.075 124.795 174.204 147.775 161.038C168.298 149.255 189.484 137.076 214.988 145.437C227.408 149.518 238.897 155.838 249.989 161.96C265.464 170.518 281.536 179.273 300 181.906L299.934 182.564C281.271 179.931 265.198 171.11 249.657 162.552C238.565 156.43 227.142 150.176 214.789 146.095C189.617 137.801 168.497 149.913 148.107 161.631C125.061 174.862 107.859 179.734 82.3556 180.326C71.4634 180.589 60.3719 180.984 49.679 181.379C33.3407 181.906 16.5375 182.564 0 182.564Z" fill="#A8A6FF"/>
<path d="M3.58645 191.319C2.39097 191.319 1.19548 191.319 0 191.319V190.661C16.4711 190.727 33.2079 190.464 49.4133 190.2C60.2391 190.003 71.3969 189.871 82.422 189.805C84.0159 189.805 85.5435 189.805 87.0711 189.805C96.9006 189.805 106.132 189.805 115.431 186.843C125.991 183.486 135.621 177.364 144.919 171.505C145.849 170.912 146.845 170.32 147.775 169.727C168.098 156.891 189.152 143.593 214.988 152.414C227.54 156.693 239.03 163.342 250.122 169.793C265.53 178.68 281.404 187.896 300 190.661L299.934 191.319C281.204 188.555 265.265 179.273 249.856 170.386C238.765 164 227.275 157.352 214.855 153.073C189.351 144.383 168.43 157.549 148.24 170.32C147.31 170.912 146.314 171.505 145.384 172.097C136.086 178.022 126.389 184.144 115.763 187.501C106.332 190.464 97.0334 190.464 87.2039 190.464C85.6763 190.464 84.0824 190.464 82.5548 190.464C71.5298 190.53 60.3719 190.727 49.6126 190.859C34.4034 191.056 18.9285 191.319 3.58645 191.319Z" fill="#A8A6FF"/>
<path d="M0 200.075V199.416C16.6039 199.416 33.4735 198.166 49.7454 196.915C60.3719 196.125 71.3305 195.335 82.1563 194.808C108.324 193.689 126.19 189.345 147.974 178.812C169.028 168.674 190.746 158.142 215.187 165.514C227.607 169.267 239.163 175.126 250.387 180.853C265.862 188.686 281.868 196.783 300 199.285L299.934 199.943C281.669 197.507 265.663 189.345 250.122 181.445C238.964 175.784 227.341 169.925 214.988 166.173C190.812 158.866 169.161 169.267 148.24 179.404C126.389 189.937 108.457 194.282 82.1563 195.467C71.3305 195.928 60.3719 196.783 49.7454 197.573C33.4735 198.824 16.6039 200.075 0 200.075Z" fill="#A8A6FF"/>
<path d="M0 208.83V208.172C16.7368 207.908 33.3407 205.407 49.4797 202.971C60.0398 201.391 70.8656 199.746 81.6914 198.758L83.8167 198.561C106.597 196.454 126.19 194.611 148.107 187.831L149.236 187.501C170.689 180.853 192.805 173.941 215.519 179.734C227.74 182.893 239.429 187.831 250.653 192.636C266.261 199.285 282.333 206.131 300 208.106L299.934 208.764C282.201 206.789 266.062 199.943 250.387 193.229C239.163 188.423 227.474 183.486 215.32 180.326C192.805 174.599 170.755 181.445 149.435 188.094L148.306 188.423C126.389 195.269 106.664 197.047 83.8831 199.153L81.7578 199.351C70.932 200.338 60.0398 201.984 49.5462 203.564C33.4071 206.065 16.7368 208.567 0 208.83Z" fill="#A8A6FF"/>
<path d="M0 217.585V216.927C16.8032 216.335 33.2079 212.582 49.0812 208.962C59.4421 206.592 70.2015 204.156 81.0272 202.576C92.1187 200.996 103.476 200.272 114.434 199.548C125.526 198.824 136.949 198.1 148.174 196.52C150.498 196.191 152.823 195.796 155.214 195.467C175.271 192.439 196.059 189.345 215.918 193.558C228.005 196.125 239.694 200.206 250.985 204.222C266.659 209.686 282.798 215.413 300 216.927L299.934 217.585C282.665 216.005 266.46 210.344 250.719 204.814C239.429 200.865 227.74 196.717 215.718 194.216C195.993 190.069 175.271 193.163 155.28 196.191C152.889 196.52 150.565 196.915 148.24 197.244C137.016 198.89 125.592 199.614 114.501 200.272C103.542 200.996 92.1851 201.655 81.1601 203.3C70.4007 204.88 59.6414 207.316 49.2805 209.686C33.3407 213.241 16.936 216.993 0 217.585Z" fill="#A8A6FF"/>
<path d="M300 226.341C283.134 225.485 266.866 221.206 251.129 217.059C239.841 214.096 228.154 211.068 216.335 209.291C201.195 206.987 185.193 206.724 169.721 206.46C162.616 206.329 155.246 206.197 148.141 205.868C142.962 205.604 137.649 205.275 132.47 204.88C115.073 203.63 97.0784 202.379 80.2789 205.868C69.5219 208.172 58.9641 211.595 48.8048 214.886C33.2669 219.955 17.1979 225.156 0.0664013 226.341L0 225.682C16.9987 224.563 33.0677 219.363 48.5392 214.294C58.6985 211.002 69.2563 207.513 80.0797 205.275C96.9456 201.72 115.007 202.971 132.404 204.222C137.583 204.617 142.895 204.946 148.074 205.209C155.179 205.539 162.55 205.67 169.655 205.802C185.126 206.065 201.129 206.329 216.335 208.633C228.22 210.41 239.907 213.504 251.195 216.466C266.932 220.548 283.134 224.827 299.934 225.682L300 226.341Z" fill="#A8A6FF"/>
<path d="M300 235.162C283.529 234.898 267.191 232.068 251.384 229.303C240.093 227.328 228.404 225.353 216.781 224.234C190.68 221.798 170.091 219.297 147.974 214.096C145.451 213.504 142.993 212.912 140.469 212.319C120.412 207.448 99.6236 202.445 79.4997 208.106C68.7403 211.134 58.3795 215.611 48.4171 219.889C33.2079 226.472 17.5338 233.253 0.066416 235.03L0 234.372C17.3345 232.594 33.0086 225.814 48.1514 219.297C58.1138 214.952 68.4746 210.542 79.3004 207.448C99.6236 201.721 120.478 206.724 140.602 211.661C143.126 212.253 145.65 212.846 148.107 213.438C170.157 218.573 190.746 221.14 216.781 223.51C228.47 224.563 240.159 226.604 251.45 228.579C267.191 231.344 283.529 234.174 299.934 234.438L300 235.162Z" fill="#A8A6FF"/>
<path d="M297.741 243.983C282.197 243.983 266.652 242.469 251.572 241.086C240.279 240.033 228.654 238.914 217.161 238.387C190.39 237.268 170.062 231.146 147.874 222.391C146.28 221.798 144.686 221.14 143.158 220.482C122.365 212.187 100.908 203.564 78.7865 211.2C68.0248 214.952 57.9274 220.284 48.1621 225.485C33.2817 233.384 17.9362 241.547 0.0664307 243.851L0 243.193C17.7369 240.889 33.0159 232.792 47.8299 224.892C57.5952 219.692 67.6926 214.294 78.5872 210.542C100.974 202.84 122.564 211.463 143.423 219.824C145.018 220.482 146.612 221.074 148.14 221.733C170.328 230.488 190.523 236.61 217.228 237.729C228.787 238.19 240.412 239.309 251.705 240.428C267.515 241.942 283.791 243.522 300 243.325V243.983C299.203 243.983 298.472 243.983 297.741 243.983Z" fill="#A8A6FF"/>
<path d="M291.1 252.738C277.95 252.738 264.733 252.277 251.849 251.816C240.558 251.422 228.935 251.027 217.445 250.895C191.41 250.697 172.88 243.588 147.775 230.619C146.712 230.093 145.65 229.5 144.654 228.974C123.6 217.98 101.815 206.658 78.2378 215.808C67.4784 220.021 57.5825 226.077 48.0186 231.936C33.4735 240.889 18.3972 250.105 0.066416 252.541L0 251.882C18.1315 249.447 33.1415 240.231 47.6865 231.344C57.2504 225.485 67.1463 219.429 78.0385 215.215C101.948 205.934 123.865 217.322 144.986 228.381C146.048 228.908 147.111 229.5 148.107 230.027C173.079 242.995 191.543 250.039 217.445 250.237C228.935 250.302 240.558 250.763 251.849 251.158C267.589 251.685 283.927 252.277 300 252.014V252.672C297.078 252.738 294.089 252.738 291.1 252.738Z" fill="#A8A6FF"/>
<path d="M280.868 261.362C271.236 261.362 261.603 261.362 252.236 261.362C240.678 261.362 229.052 261.362 217.493 261.362C217.493 261.362 217.493 261.362 217.427 261.362C190.523 261.362 172.188 253.594 147.741 239.243L146.944 238.782C125.354 226.077 102.967 212.977 77.8565 223.049C67.0948 227.394 57.3959 233.779 48.0292 240.033C33.6138 249.578 18.7334 259.387 0.0664307 261.428L0 260.769C18.5341 258.794 32.6838 249.381 47.6971 239.506C57.1302 233.253 66.829 226.867 77.6572 222.523C103.034 212.319 125.554 225.551 147.343 238.322L148.14 238.782C172.52 253.067 190.788 260.835 217.493 260.835C217.493 260.835 217.493 260.835 217.56 260.835C229.119 260.835 240.744 260.835 252.303 260.835C267.914 260.835 284.123 260.835 300 260.835V261.493C293.623 261.362 287.245 261.362 280.868 261.362Z" fill="#A8A6FF"/>
</svg>
