<svg width="67" height="48" viewBox="0 0 67 48" fill="none" xmlns="http://www.w3.org/2000/svg">
<path d="M66.0092 18.0588C65.8284 17.9152 64.1405 16.6408 60.5809 16.6408C59.641 16.6449 58.703 16.7255 57.7762 16.8818C57.0873 12.1597 53.1832 9.85747 53.0082 9.75419L52.0523 9.20297L51.4237 10.1101C50.6364 11.3287 50.0617 12.6721 49.7243 14.083C49.087 16.7786 49.4746 19.3103 50.8438 21.4748C49.1904 22.3962 46.5379 22.6231 46.0012 22.6431H2.08684C0.939812 22.6447 0.00905166 23.5716 0.00280056 24.7186C-0.0484211 28.5657 0.603373 32.3899 1.92609 36.0028C3.43885 39.97 5.68943 42.8923 8.61747 44.6807C11.8985 46.6901 17.2292 47.8383 23.2718 47.8383C26.0016 47.8469 28.7262 47.5998 31.41 47.1006C35.1407 46.4156 38.7306 45.1116 42.0312 43.2424C44.7508 41.6675 47.1984 39.664 49.2795 37.3089C52.7586 33.3705 54.8313 28.9842 56.3727 25.086H56.987C60.7962 25.086 63.1387 23.5617 64.4305 22.2843C65.2889 21.4696 65.9591 20.4772 66.3939 19.3764L66.6667 18.5784L66.0092 18.0588Z" fill="#2496ED"/>
<path d="M6.15736 21.3571H12.0421C12.3259 21.3571 12.5559 21.1271 12.5559 20.8433V15.6016C12.5575 15.3177 12.3287 15.0865 12.045 15.0849C12.044 15.0849 12.043 15.0849 12.0421 15.0849H6.15736C5.87354 15.0849 5.64355 15.3149 5.64355 15.5987V15.6016V20.8433C5.64355 21.1271 5.87354 21.3571 6.15736 21.3571Z" fill="#2496ED"/>
<path d="M14.2668 21.3571H20.1515C20.4353 21.3571 20.6653 21.1271 20.6653 20.8433V15.6016C20.6669 15.3177 20.4381 15.0865 20.1543 15.0849C20.1534 15.0849 20.1523 15.0849 20.1514 15.0849H14.2667C13.9813 15.0849 13.75 15.3162 13.75 15.6016V20.8433C13.7517 21.1275 13.9825 21.3571 14.2668 21.3571Z" fill="#2496ED"/>
<path d="M22.4995 21.3571H28.3842C28.668 21.3571 28.898 21.1271 28.898 20.8433V15.6016C28.8996 15.3177 28.6708 15.0865 28.387 15.0849C28.3861 15.0849 28.385 15.0849 28.3841 15.0849H22.4994C22.2156 15.0849 21.9856 15.3149 21.9856 15.5987V15.6016V20.8433C21.9857 21.1271 22.2158 21.3571 22.4995 21.3571Z" fill="#2496ED"/>
<path d="M30.6349 21.3571H36.5196C36.8039 21.3571 37.0347 21.1276 37.0363 20.8433V15.6016C37.0363 15.3162 36.805 15.0849 36.5196 15.0849H30.6349C30.3511 15.0849 30.1211 15.3149 30.1211 15.5987V15.6016V20.8433C30.1211 21.1271 30.3512 21.3571 30.6349 21.3571Z" fill="#2496ED"/>
<path d="M14.2667 13.8161H20.1514C20.4356 13.8145 20.6652 13.5836 20.6652 13.2994V8.05775C20.6652 7.77393 20.4351 7.54395 20.1514 7.54395H14.2667C13.9825 7.54395 13.7516 7.77346 13.75 8.05775V13.2994C13.7516 13.5842 13.9819 13.8145 14.2667 13.8161Z" fill="#2496ED"/>
<path d="M22.4996 13.8161H28.3844C28.6685 13.8145 28.8982 13.5836 28.8982 13.2994V8.05775C28.8982 7.77393 28.6681 7.54395 28.3844 7.54395H22.4996C22.2158 7.54395 21.9858 7.77402 21.9858 8.05775V13.2994C21.9858 13.5836 22.2155 13.8145 22.4996 13.8161Z" fill="#2496ED"/>
<path d="M30.6349 13.8161H36.5196C36.8044 13.8145 37.0347 13.5842 37.0363 13.2994V8.05775C37.0347 7.77346 36.8039 7.54395 36.5196 7.54395H30.6349C30.3511 7.54395 30.1211 7.77402 30.1211 8.05775V13.2994C30.1211 13.5836 30.3507 13.8145 30.6349 13.8161Z" fill="#2496ED"/>
<path d="M30.6349 6.27228H36.5196C36.8039 6.27228 37.0347 6.04267 37.0363 5.75848V0.513803C37.0347 0.229518 36.8039 0 36.5196 0H30.6349C30.3511 0 30.1211 0.229984 30.1211 0.513803V5.75838C30.1211 6.0422 30.3512 6.27228 30.6349 6.27228Z" fill="#2496ED"/>
<path d="M38.8419 21.3571H44.7266C45.0109 21.3571 45.2417 21.1276 45.2433 20.8433V15.6016C45.2433 15.3162 45.012 15.0849 44.7266 15.0849H38.8419C38.5582 15.0849 38.3281 15.3149 38.3281 15.5987V15.6016V20.8433C38.3281 21.1271 38.5582 21.3571 38.8419 21.3571Z" fill="#2496ED"/>
</svg>
