<svg width="70" height="68" viewBox="0 0 70 68" fill="none" xmlns="http://www.w3.org/2000/svg">
<path d="M35 39.8775C38.2461 39.8775 40.8775 37.2461 40.8775 34C40.8775 30.754 38.2461 28.1226 35 28.1226C31.754 28.1226 29.1226 30.754 29.1226 34C29.1226 37.2461 31.754 39.8775 35 39.8775Z" fill="#61DAFB"/>
<path d="M34.9999 46.0417C52.4177 46.0417 66.5376 40.6504 66.5376 34C66.5376 27.3496 52.4177 21.9583 34.9999 21.9583C17.5821 21.9583 3.46216 27.3496 3.46216 34C3.46216 40.6504 17.5821 46.0417 34.9999 46.0417Z" stroke="#61DAFB" stroke-width="5"/>
<path d="M24.5715 40.0208C33.2804 55.1051 45.0093 64.6377 50.7688 61.3125C56.5282 57.9873 54.1372 43.0634 45.4283 27.9791C36.7194 12.8949 24.9905 3.36228 19.231 6.6875C13.4716 10.0127 15.8626 24.9366 24.5715 40.0208Z" stroke="#61DAFB" stroke-width="5"/>
<path d="M24.5716 27.9791C15.8627 43.0634 13.4717 57.9873 19.2311 61.3125C24.9906 64.6377 36.7195 55.1051 45.4284 40.0208C54.1373 24.9366 56.5283 10.0127 50.7689 6.6875C45.0094 3.36228 33.2805 12.8949 24.5716 27.9791Z" stroke="#61DAFB" stroke-width="5"/>
</svg>
