<svg width="68" height="40" viewBox="0 0 68 40" fill="none" xmlns="http://www.w3.org/2000/svg">
<path d="M34.0001 0.00543213C25.1109 0.00543213 19.5555 4.44876 17.333 13.3346C20.6667 8.89125 24.5557 7.22563 28.9999 8.33604C31.5358 8.96961 33.3482 10.8095 35.3548 12.8452C38.6227 16.1615 42.4049 19.9996 50.6672 19.9996C59.5555 19.9996 65.1117 15.5562 67.3334 6.66959C64.0005 11.1129 60.1115 12.7794 55.6665 11.669C53.1314 11.0354 51.3191 9.19553 49.3125 7.15977C46.0446 3.84353 42.2615 0.00543213 34.0001 0.00543213ZM17.333 19.9996C8.44467 19.9996 2.88841 24.4429 0.666748 33.3295C3.99966 28.8862 7.88862 27.2198 12.3336 28.331C14.8687 28.9654 16.6811 30.8044 18.6877 32.8394C21.9556 36.1556 25.7387 39.9945 34.0001 39.9945C42.8893 39.9945 48.4447 35.5512 50.6672 26.6646C47.3334 31.1079 43.4445 32.7743 39.0003 31.6631C36.4643 31.0303 34.652 29.1897 32.6454 27.1547C29.3775 23.8385 25.5953 19.9996 17.333 19.9996Z" fill="#06B6D4"/>
</svg>
