<svg width="68" height="68" viewBox="0 0 68 68" fill="none" xmlns="http://www.w3.org/2000/svg">
<path d="M0.666748 0.666656H67.3334V67.3333H0.666748V0.666656Z" fill="#017ACB"/>
<path d="M32.6773 25.3542H35.8752V30.875H27.2294V55.4375L27.0002 55.5C26.6877 55.5833 22.5731 55.5833 21.6877 55.4896L20.9793 55.4271V30.875H12.3335V25.3542L15.0731 25.3229C16.5731 25.3021 20.4273 25.3021 23.6356 25.3229C26.8439 25.3437 30.9064 25.3542 32.6773 25.3542ZM57.0836 52.8333C55.8127 54.1771 54.4482 54.9271 52.1773 55.5417C51.1877 55.8125 51.0211 55.8229 48.7919 55.8125C46.5627 55.8021 46.3856 55.8021 45.3023 55.5208C42.5002 54.8021 40.2398 53.3958 38.6981 51.4062C38.2606 50.8437 37.5419 49.6771 37.5419 49.5312C37.5419 49.4896 37.646 49.3958 37.7815 49.3333C37.9169 49.2708 38.1981 49.0937 38.4273 48.9583C38.6565 48.8229 39.0731 48.5729 39.3544 48.4271C39.6356 48.2812 40.4481 47.8021 41.1565 47.375C41.8648 46.9479 42.5106 46.6042 42.5835 46.6042C42.6565 46.6042 42.7919 46.75 42.896 46.9271C43.521 47.9792 44.9794 49.3229 46.0106 49.7812C46.6461 50.0521 48.0523 50.3542 48.7294 50.3542C49.3544 50.3542 50.5002 50.0833 51.1148 49.8021C51.7711 49.5 52.1044 49.1979 52.5002 48.5937C52.7711 48.1667 52.8023 48.0521 52.7919 47.2396C52.7919 46.4896 52.7502 46.2812 52.5419 45.9375C51.9586 44.9792 51.1669 44.4792 47.9586 43.0625C44.646 41.5937 43.1565 40.7187 41.9481 39.5417C41.0523 38.6667 40.8752 38.4271 40.3127 37.3333C39.5835 35.9271 39.4898 35.4687 39.4794 33.375C39.469 31.9062 39.5002 31.4271 39.6565 30.9271C39.8752 30.1771 40.5835 28.7292 40.9065 28.3646C41.5731 27.5833 41.8127 27.3437 42.2815 26.9583C43.6981 25.7917 45.9065 25.0208 48.0211 24.9479C48.2606 24.9479 49.0523 24.9896 49.7919 25.0417C51.9169 25.2187 53.3648 25.7396 54.7607 26.8542C55.8127 27.6875 57.4065 29.6458 57.2502 29.9062C57.1461 30.0625 52.9898 32.8333 52.719 32.9167C52.5523 32.9687 52.4377 32.9062 52.2086 32.6354C50.7919 30.9375 50.219 30.5729 48.844 30.4896C47.8648 30.4271 47.344 30.5417 46.6877 30.9792C46.0002 31.4375 45.6669 32.1354 45.6669 33.1042C45.6773 34.5208 46.219 35.1875 48.219 36.1771C49.5106 36.8125 50.6148 37.3333 50.6981 37.3333C50.8231 37.3333 53.5002 38.6667 54.1982 39.0833C57.4482 40.9896 58.7711 42.9479 59.1148 46.3229C59.3648 48.8646 58.6461 51.1875 57.0836 52.8333Z" fill="white"/>
</svg>
