<svg width="70" height="70" viewBox="0 0 70 70" fill="none" xmlns="http://www.w3.org/2000/svg">
<g clip-path="url(#clip0_639_1763)">
<path d="M35 70C54.33 70 70 54.33 70 35C70 15.67 54.33 0 35 0C15.67 0 0 15.67 0 35C0 54.33 15.67 70 35 70Z" fill="black"/>
<path d="M58.142 61.258L26.8886 21H21V48.9884H25.7108V26.9825L54.4441 64.1064C55.7406 63.2386 56.9758 62.2865 58.142 61.258Z" fill="url(#paint0_linear_639_1763)"/>
<path d="M49.3891 21H44.7224V49H49.3891V21Z" fill="url(#paint1_linear_639_1763)"/>
</g>
<defs>
<linearGradient id="paint0_linear_639_1763" x1="42.3888" y1="45.3056" x2="56.1944" y2="62.4166" gradientUnits="userSpaceOnUse">
<stop stop-color="white"/>
<stop offset="1" stop-color="white" stop-opacity="0"/>
</linearGradient>
<linearGradient id="paint1_linear_639_1763" x1="47.0558" y1="21" x2="46.9776" y2="41.5626" gradientUnits="userSpaceOnUse">
<stop stop-color="white"/>
<stop offset="1" stop-color="white" stop-opacity="0"/>
</linearGradient>
<clipPath id="clip0_639_1763">
<rect width="70" height="70" fill="white"/>
</clipPath>
</defs>
</svg>
