<svg width="68" height="68" viewBox="0 0 68 68" fill="none" xmlns="http://www.w3.org/2000/svg">
<path d="M33.7599 0.839996C16.8357 0.839996 17.8924 8.17932 17.8924 8.17932L17.9112 15.7831H34.0617V18.0659H11.4965C11.4965 18.0659 0.666748 16.8377 0.666748 33.9141C0.666748 50.9909 10.1192 50.3853 10.1192 50.3853H15.7605V42.461C15.7605 42.461 15.4563 33.0085 25.0621 33.0085H41.0804C41.0804 33.0085 50.08 33.1539 50.08 24.3107V9.68895C50.08 9.68895 51.4469 0.839996 33.7599 0.839996ZM24.8546 5.95337C25.2362 5.95303 25.6142 6.02795 25.9668 6.17384C26.3195 6.31973 26.6399 6.53373 26.9098 6.8036C27.1796 7.07346 27.3936 7.39389 27.5395 7.74655C27.6854 8.09921 27.7603 8.47718 27.76 8.85882C27.7603 9.24047 27.6854 9.61844 27.5395 9.9711C27.3936 10.3238 27.1796 10.6442 26.9098 10.9141C26.6399 11.1839 26.3195 11.3979 25.9668 11.5438C25.6142 11.6897 25.2362 11.7646 24.8546 11.7643C24.4729 11.7646 24.0949 11.6897 23.7423 11.5438C23.3896 11.3979 23.0692 11.1839 22.7993 10.9141C22.5295 10.6442 22.3155 10.3238 22.1696 9.9711C22.0237 9.61844 21.9488 9.24047 21.9491 8.85882C21.9488 8.47718 22.0237 8.09921 22.1696 7.74655C22.3155 7.39389 22.5295 7.07346 22.7993 6.8036C23.0692 6.53373 23.3896 6.31973 23.7423 6.17384C24.0949 6.02795 24.4729 5.95303 24.8546 5.95337Z" fill="url(#paint0_linear_639_1803)"/>
<path d="M34.2406 67.16C51.1648 67.16 50.1081 59.8207 50.1081 59.8207L50.0893 52.2172H33.9386V49.9343H56.5037C56.5037 49.9343 67.3335 51.1625 67.3335 34.0856C67.3335 17.009 57.881 17.6146 57.881 17.6146H52.2398V25.5387C52.2398 25.5387 52.5439 34.9912 42.9382 34.9912H26.9198C26.9198 34.9912 17.9202 34.8458 17.9202 43.6893V58.3113C17.9202 58.3113 16.5537 67.16 34.2404 67.16H34.2406ZM43.146 62.0471C42.7643 62.0475 42.3864 61.9726 42.0337 61.8267C41.681 61.6808 41.3606 61.4668 41.0907 61.1969C40.8209 60.9271 40.6069 60.6066 40.461 60.254C40.3151 59.9013 40.2402 59.5233 40.2405 59.1417C40.2401 58.76 40.315 58.382 40.4609 58.0293C40.6068 57.6766 40.8208 57.3562 41.0906 57.0863C41.3605 56.8164 41.681 56.6024 42.0336 56.4565C42.3863 56.3106 42.7643 56.2356 43.146 56.236C43.5276 56.2356 43.9056 56.3105 44.2582 56.4564C44.6109 56.6023 44.9313 56.8163 45.2012 57.0862C45.4711 57.3561 45.6851 57.6765 45.831 58.0291C45.9768 58.3818 46.0518 58.7598 46.0514 59.1414C46.0518 59.5231 45.9768 59.901 45.831 60.2537C45.6851 60.6064 45.4711 60.9268 45.2012 61.1967C44.9313 61.4665 44.6109 61.6805 44.2582 61.8264C43.9056 61.9723 43.5276 62.0472 43.146 62.0469V62.0471Z" fill="url(#paint1_linear_639_1803)"/>
<defs>
<linearGradient id="paint0_linear_639_1803" x1="7.07339" y1="6.80508" x2="40.1113" y2="39.5134" gradientUnits="userSpaceOnUse">
<stop stop-color="#387EB8"/>
<stop offset="1" stop-color="#366994"/>
</linearGradient>
<linearGradient id="paint1_linear_639_1803" x1="27.3522" y1="27.8084" x2="62.8312" y2="61.3478" gradientUnits="userSpaceOnUse">
<stop stop-color="#FFE052"/>
<stop offset="1" stop-color="#FFC331"/>
</linearGradient>
</defs>
</svg>
